<?xml version="1.0" encoding="utf-8"?>
<!-- Generator: Adobe Illustrator 25.4.1, SVG Export Plug-In . SVG Version: 6.00 Build 0)  -->
<svg version="1.1" xmlns="http://www.w3.org/2000/svg" xmlns:xlink="http://www.w3.org/1999/xlink" x="0px" y="0px"
	 viewBox="0 0 1482 512" style="enable-background:new 0 0 1482 512;" xml:space="preserve">
<style type="text/css">
	.st0{fill:#F6FF35;}
	.st1{fill:#F95428;}
	.st2{fill:#00C8F4;}
	.st3{fill:#FFFC6A;}
	.st4{fill:#E54728;}
	.st5{fill:#F6FF3F;}
	.st6{font-family:'Revamped';}
	.st7{font-size:147.6001px;}
	.st8{letter-spacing:8;}
</style>
<g id="Layer_1">
	<path class="st0" d="M92.5,73.8C90.9,69.8,90,65.5,90,61c0-18.6,15.1-33.7,33.7-33.7c9.3,0,17.8,3.8,23.9,9.9
		c6-17.5,22.6-30.1,42.1-30.1c13.2,0,25.1,5.8,33.3,15C227.8,9.2,240.2,0,254.7,0c15.4,0,28.3,10.3,32.4,24.3
		c8.2-10.5,20.9-17.2,35.2-17.2c19.5,0,36.1,12.6,42.1,30.1c6.1-6.1,14.6-9.9,23.9-9.9c18.6,0,33.7,15.1,33.7,33.7
		c0,4.5-0.9,8.9-2.5,12.8c22.8,2,40.6,21.1,40.6,44.4c0,11.6-4.4,22.2-11.7,30.1l-67.1,79.9l-105.1,29.6L150.9,224l-60.6-20.2
		l-26.7-55.6c-7.2-7.9-11.7-18.5-11.7-30.1C51.9,94.9,69.7,75.8,92.5,73.8z"/>
	<polygon class="st1" points="448.4,148.2 381.6,148.2 130.4,148.2 63.6,148.2 63.1,148.2 108.1,512 159.7,512 352.3,512 403.8,512 
		448.8,148.2 	"/>
	<g>
		<path class="st2" d="M381.6,148.2L352.3,512h-60.1l3.7-121c19.8-13,21.4-106,3.6-119.3l0,0l3.7-123.5L381.6,148.2L381.6,148.2z"/>
		<path class="st2" d="M216.2,391l3.7,121h-60.1l-29.3-363.8h78.4l3.7,123.5l0,0C194.8,285,196.3,378,216.2,391z"/>
	</g>
	<path class="st3" d="M189.5,73.8c-1.6-3.9-2.5-8.3-2.5-12.8c0-18.6,15.1-33.7,33.7-33.7c9.3,0,17.8,3.8,23.9,9.9
		c5-14.4,17.1-25.5,32.1-28.9C270.8,3.1,263.1,0,254.7,0c-14.5,0-26.9,9.2-31.7,22.1c-8.2-9.2-20-15-33.3-15
		c-19.5,0-36.1,12.6-42.1,30.1c-6.1-6.1-14.6-9.9-23.9-9.9C105.1,27.2,90,42.3,90,61c0,4.5,0.9,8.9,2.5,12.8
		c-22.8,2-40.6,21.1-40.6,44.4c0,11.6,4.4,22.2,11.7,30.1h66.9h30.1c-7.2-7.9-11.7-18.5-11.7-30.1C148.9,94.9,166.7,75.8,189.5,73.8
		z"/>
	<polygon class="st4" points="130.4,148.2 159.7,512 108.1,512 63.1,148.2 63.6,148.2 	"/>
	<path class="st5" d="M299.4,271.7c17.8,13.3,29.3,34.5,29.3,58.4c0,25.5-13.1,47.9-32.9,60.9c-11.4,7.5-25.1,11.9-39.8,11.9
		c-14.7,0-28.4-4.4-39.8-11.8c-19.8-13-33-35.4-33-60.9c0-23.9,11.5-45.1,29.4-58.4c12.1-9,27.1-14.4,43.4-14.4
		C272.2,257.3,287.3,262.7,299.4,271.7z"/>
	<text transform="matrix(1 0 0 1 505.5879 217.6563)"><tspan x="0" y="0" class="st2 st6 st7">M</tspan><tspan x="144.1" y="0" class="st1 st6 st7">O</tspan><tspan x="266.7" y="0" class="st2 st6 st7">V</tspan><tspan x="382" y="0" class="st1 st6 st7">I</tspan><tspan x="425.2" y="0" class="st2 st6 st7">E</tspan><tspan x="540.5" y="0" class="st6 st7"> </tspan><tspan x="577.1" y="0" class="st1 st6 st7">W</tspan><tspan x="735.7" y="0" class="st2 st6 st7">I</tspan><tspan x="778.9" y="0" class="st1 st6 st7">K</tspan><tspan x="901.5" y="0" class="st2 st6 st7">I</tspan><tspan x="0" y="177.1" class="st1 st6 st7 st8">D</tspan><tspan x="130.6" y="177.1" class="st2 st6 st7 st8">A</tspan><tspan x="254.1" y="177.1" class="st1 st6 st7 st8">T</tspan><tspan x="377.5" y="177.1" class="st2 st6 st7 st8">A</tspan><tspan x="500.9" y="177.1" class="st1 st6 st7 st8">B</tspan><tspan x="631.6" y="177.1" class="st2 st6 st7 st8">A</tspan><tspan x="755" y="177.1" class="st1 st6 st7 st8">S</tspan><tspan x="885.6" y="177.1" class="st2 st6 st7 st8">E</tspan></text>
</g>
<g id="Layer_2">
</g>
</svg>
